<?xml version="1.0" encoding="UTF-8"?>
<svg version="1.1" xmlns="http://www.w3.org/2000/svg" width="1024" height="1024">
<path d="M0 0 C3.18225608 2.38852939 6.28388973 2.40771021 10.13671875 2.55932617 C20.91156125 2.99295394 30.82954405 4.15831894 38.69140625 12.26953125 C42.27984459 16.75374815 45.50146848 21.49769812 48.69140625 26.26953125 C49.45324219 26.54925781 50.21507812 26.82898438 51 27.1171875 C62.53279994 31.59496625 71.12408963 37.56175003 76.9453125 48.66015625 C81.57912868 59.44548449 80.22397534 71.88473226 78.69140625 83.26953125 C79.57828125 84.17703125 80.46515625 85.08453125 81.37890625 86.01953125 C90.48001744 96.58717221 91.41806134 109.78668166 90.87060547 123.05908203 C89.98997941 133.92173649 83.82132273 145.0959616 75.95703125 152.53515625 C68.82030793 157.998441 60.45623268 163.23442747 51.3671875 163.5859375 C49.82514648 163.6487793 49.82514648 163.6487793 48.25195312 163.71289062 C47.18009766 163.75220703 46.10824219 163.79152344 45.00390625 163.83203125 C43.92044922 163.87521484 42.83699219 163.91839844 41.72070312 163.96289062 C39.04439834 164.06899963 36.36800099 164.17105486 33.69140625 164.26953125 C12.72310483 182.18737741 6.12578442 203.47963147 3.98828125 230.23828125 C3.88753778 231.58189859 3.78784951 232.9255984 3.69140625 234.26953125 C1.72184291 238.60257059 0.17189562 240.78904188 -3.30859375 244.26953125 C-20.13859375 244.26953125 -36.96859375 244.26953125 -54.30859375 244.26953125 C-61.20006662 237.37805838 -61.20006662 237.37805838 -61.52050781 234.10498047 C-64.3775973 205.5937997 -70.12491698 184.58856815 -91.30859375 164.26953125 C-92.19160156 164.29273438 -93.07460938 164.3159375 -93.984375 164.33984375 C-110.08908287 164.58201981 -124.13259645 161.75078175 -136.25390625 150.45703125 C-144.91547335 141.1580328 -149.04231258 129.5361158 -149.40625 116.87109375 C-148.89363351 106.34370151 -145.77738704 97.83525674 -139.703125 89.28515625 C-137.92791691 86.71930926 -136.61395413 84.09781207 -135.30859375 81.26953125 C-135.45296875 80.59148437 -135.59734375 79.9134375 -135.74609375 79.21484375 C-138.28902713 66.46485835 -138.0934308 53.98059861 -131.65234375 42.26953125 C-122.37113426 28.45563806 -110.67077637 23.57704151 -95.30859375 19.26953125 C-94.39980469 18.27373047 -94.39980469 18.27373047 -93.47265625 17.2578125 C-82.30926608 5.4933167 -72.9465791 3.41086569 -57.30859375 2.26953125 C-55.97054687 1.37621094 -55.97054687 1.37621094 -54.60546875 0.46484375 C-52.97351563 -0.62183594 -52.97351563 -0.62183594 -51.30859375 -1.73046875 C-50.509375 -2.26929688 -49.71015625 -2.808125 -48.88671875 -3.36328125 C-33.44355624 -13.26141561 -14.10230601 -11.62925026 0 0 Z M-46.48046875 6.5078125 C-51.54170015 11.38519575 -54.15254519 15.33323991 -55.30859375 22.26953125 C-53.48328125 22.02203125 -53.48328125 22.02203125 -51.62109375 21.76953125 C-39.20888295 20.46605457 -27.64226652 20.55995466 -17.05859375 28.01953125 C-14.30859375 30.26953125 -14.30859375 30.26953125 -13.30859375 32.26953125 C-13.30859375 34.24953125 -13.30859375 36.22953125 -13.30859375 38.26953125 C-14.62859375 38.59953125 -15.94859375 38.92953125 -17.30859375 39.26953125 C-17.80488281 38.87121094 -18.30117188 38.47289062 -18.8125 38.0625 C-19.49183594 37.53269531 -20.17117188 37.00289063 -20.87109375 36.45703125 C-21.53238281 35.93496094 -22.19367188 35.41289062 -22.875 34.875 C-32.02487716 28.8387247 -36.31949122 30.26953125 -48.30859375 30.26953125 C-57.72005896 34.11967611 -63.30889284 38.35413538 -68.30859375 47.26953125 C-68.30859375 49.24953125 -68.30859375 51.22953125 -68.30859375 53.26953125 C-67.77492188 53.42808594 -67.24125 53.58664062 -66.69140625 53.75 C-57.43116285 56.64983401 -50.57531407 59.74946686 -44.30859375 67.26953125 C-44.63859375 68.91953125 -44.96859375 70.56953125 -45.30859375 72.26953125 C-46.62859375 72.59953125 -47.94859375 72.92953125 -49.30859375 73.26953125 C-53.76359375 69.80453125 -53.76359375 69.80453125 -58.30859375 66.26953125 C-70.08804778 62.44881102 -70.08804778 62.44881102 -81.30859375 65.26953125 C-90.66138237 70.61295243 -90.66138237 70.61295243 -95.30859375 79.26953125 C-97.25601347 90.95404958 -97.35527259 97.48276064 -91.109375 106.93359375 C-88.56809486 110.23009163 -85.83042243 112.08599747 -82.30859375 114.26953125 C-82.30859375 115.91953125 -82.30859375 117.56953125 -82.30859375 119.26953125 C-88.58454045 120.31552237 -88.58454045 120.31552237 -92.5234375 117.65234375 C-99.02909206 112.61295269 -103.33377557 106.25560917 -105.30859375 98.26953125 C-105.88202706 93.60431106 -106.17322956 88.96666859 -106.30859375 84.26953125 C-106.63859375 83.93953125 -106.96859375 83.60953125 -107.30859375 83.26953125 C-117.53486598 84.01326014 -125.28386794 87.72331924 -132.30859375 95.26953125 C-138.72031134 103.53641585 -140.12011729 111.97735175 -139.30859375 122.26953125 C-137.5982596 132.94834025 -132.69753588 140.91007903 -124.39453125 147.765625 C-115.49679995 154.18065599 -107.13216902 154.97927389 -96.30859375 154.26953125 C-89.95052355 152.80555792 -87.12643605 151.08737355 -82.30859375 146.26953125 C-84.78359375 142.80453125 -84.78359375 142.80453125 -87.30859375 139.26953125 C-86.97859375 137.61953125 -86.64859375 135.96953125 -86.30859375 134.26953125 C-84.98859375 133.93953125 -83.66859375 133.60953125 -82.30859375 133.26953125 C-81.66921875 133.95015625 -81.02984375 134.63078125 -80.37109375 135.33203125 C-72.19168771 143.46509504 -63.9105423 148.95825739 -52.18359375 149.58203125 C-44.51941575 149.49231679 -36.84217709 146.61230137 -31.30859375 141.26953125 C-31.83762697 137.98952526 -32.72478663 134.96185474 -33.80859375 131.83203125 C-37.73925776 120.17425702 -37.27256832 108.50110202 -32.24609375 97.26953125 C-26.78305034 87.04220579 -18.70439555 81.79363018 -8.30859375 77.26953125 C-7.3959375 76.85574219 -6.48328125 76.44195312 -5.54296875 76.015625 C-3.47236355 75.08124812 -1.39597418 74.16562891 0.69140625 73.26953125 C3.71183244 70.24910506 3.87315017 66.88434395 4.00390625 62.70703125 C3.98103445 57.54562778 2.49329619 53.51013833 0.58203125 48.765625 C-0.46280622 45.83733052 -0.64231693 43.35647065 -0.30859375 40.26953125 C5.69140625 41.26953125 5.69140625 41.26953125 7.69140625 43.26953125 C11.79556789 42.69685753 14.75861975 41.84264585 18.69140625 40.26953125 C24.96140625 40.26953125 31.23140625 40.26953125 37.69140625 40.26953125 C38.02140625 39.93953125 38.35140625 39.60953125 38.69140625 39.26953125 C38.41078625 32.42240333 37.72700181 25.05980185 32.40625 20.0625 C24.48463591 12.90693211 18.18841234 12.05191039 7.69140625 12.26953125 C4.9939921 12.50248974 2.3691233 12.85757478 -0.30859375 13.26953125 C-1.00082031 12.49029297 -1.00082031 12.49029297 -1.70703125 11.6953125 C-13.77559294 -1.20803113 -32.03421952 -5.14901869 -46.48046875 6.5078125 Z M-72.55859375 13.76953125 C-73.450625 14.04796875 -74.34265625 14.32640625 -75.26171875 14.61328125 C-80.89186939 16.41836771 -85.55653542 23.91195342 -89.30859375 28.26953125 C-90.901875 28.63304687 -90.901875 28.63304687 -92.52734375 29.00390625 C-105.95454803 32.1507336 -116.64216065 35.79209102 -124.265625 48.046875 C-127.10991948 54.10831154 -127.57960723 59.65327251 -127.43359375 66.20703125 C-127.42457031 66.98626953 -127.41554687 67.76550781 -127.40625 68.56835938 C-127.43777137 73.18190291 -127.43777137 73.18190291 -125.30859375 77.26953125 C-124.7259375 77.14835937 -124.14328125 77.0271875 -123.54296875 76.90234375 C-116.82286559 75.52873776 -110.0795157 74.36311658 -103.30859375 73.26953125 C-102.43460938 72.20025391 -102.43460938 72.20025391 -101.54296875 71.109375 C-95.45292783 63.99475172 -89.75838698 59.52346495 -81.30859375 55.26953125 C-79.11209881 51.80437113 -77.51132967 48.41336648 -76.05859375 44.58203125 C-73.57051867 38.44173587 -70.27662535 33.56024006 -66.30859375 28.26953125 C-64.82359375 20.34953125 -64.82359375 20.34953125 -63.30859375 12.26953125 C-66.94220953 12.26953125 -69.16067495 12.69650426 -72.55859375 13.76953125 Z M-59.30859375 24.26953125 C-59.63859375 24.59953125 -59.96859375 24.92953125 -60.30859375 25.26953125 C-60.30859375 26.91953125 -60.30859375 28.56953125 -60.30859375 30.26953125 C-58.98859375 29.60953125 -57.66859375 28.94953125 -56.30859375 28.26953125 C-56.30859375 27.27953125 -56.30859375 26.28953125 -56.30859375 25.26953125 C-57.29859375 24.93953125 -58.28859375 24.60953125 -59.30859375 24.26953125 Z M47.69140625 36.26953125 C46.80291392 43.67789204 46.80291392 43.67789204 49.30078125 46.0703125 C54.47455535 52.14099999 57.47889501 57.63054507 59.69140625 65.26953125 C59.91570312 66.01203125 60.14 66.75453125 60.37109375 67.51953125 C60.83513909 69.09601406 61.26797344 70.68165821 61.69140625 72.26953125 C66.1483274 75.52677913 66.1483274 75.52677913 69.69140625 75.26953125 C72.08119936 70.48994503 70.69140625 64.6132711 70.69140625 59.26953125 C66.28867631 47.99854261 60.36150203 41.93734873 49.69140625 36.26953125 C49.03140625 36.26953125 48.37140625 36.26953125 47.69140625 36.26953125 Z M13.69140625 52.26953125 C13.36140625 52.59953125 13.03140625 52.92953125 12.69140625 53.26953125 C10.93485563 70.23563053 10.93485563 70.23563053 14.69140625 75.26953125 C15.46484375 75.56085938 16.23828125 75.8521875 17.03515625 76.15234375 C28.59296764 80.70108635 38.58755865 87.09896926 44.06640625 98.70703125 C48.362184 110.6870666 47.77177661 124.83097647 42.56640625 136.33203125 C39.74167546 141.6845992 35.89230791 145.95396478 31.69140625 150.26953125 C31.69140625 150.92953125 31.69140625 151.58953125 31.69140625 152.26953125 C42.29985123 156.21685962 52.54009251 154.82643361 62.69140625 150.26953125 C73.8093722 140.97526327 80.28356995 132.8059783 81.9375 118.078125 C82.2757973 108.22770357 79.24020199 99.78988018 74.00390625 91.64453125 C68.31285419 85.79966697 61.18409684 82.28077806 53.69140625 79.26953125 C53.03140625 79.26953125 52.37140625 79.26953125 51.69140625 79.26953125 C51.36140625 74.64953125 51.03140625 70.02953125 50.69140625 65.26953125 C46.14959506 56.18590888 41.97868105 51.68118322 32.69140625 48.26953125 C23.2331045 48.26953125 20.97456503 48.43547938 13.69140625 52.26953125 Z M-18.5546875 93.34375 C-24.95129389 100.36719532 -27.67323516 107.63261082 -27.43359375 117.14453125 C-27.42457031 117.83289063 -27.41554688 118.52125 -27.40625 119.23046875 C-27.26504159 129.39747392 -22.30752161 136.23662801 -15.30859375 143.26953125 C-5.40790835 148.58506317 3.29036436 152.07004816 14.62890625 149.14453125 C23.39565515 146.2976659 30.23815526 140.08379091 34.9140625 132.2109375 C39.97307099 122.03852257 38.96220679 112.85805504 35.69140625 102.26953125 C29.5399468 93.39160077 23.75711646 88.29581533 13.69140625 84.26953125 C-4.41558156 84.17673618 -4.41558156 84.17673618 -18.5546875 93.34375 Z M-77.30859375 146.26953125 C-77.30859375 147.58953125 -77.30859375 148.90953125 -77.30859375 150.26953125 C-76.78910156 150.511875 -76.26960938 150.75421875 -75.734375 151.00390625 C-71.49587767 153.04089203 -67.87626429 155.14781953 -64.30859375 158.26953125 C-62.98859375 157.93953125 -61.66859375 157.60953125 -60.30859375 157.26953125 C-59.97859375 156.27953125 -59.64859375 155.28953125 -59.30859375 154.26953125 C-59.86546875 154.0271875 -60.42234375 153.78484375 -60.99609375 153.53515625 C-66.18194503 151.25758643 -71.26110585 148.83916146 -76.30859375 146.26953125 C-76.63859375 146.26953125 -76.96859375 146.26953125 -77.30859375 146.26953125 Z M-26.890625 149.44140625 C-32.72741508 153.57111411 -38.50867189 156.10880842 -45.30859375 158.26953125 C-45.2003125 159.86667969 -45.2003125 159.86667969 -45.08984375 161.49609375 C-44.48748035 170.77420801 -44.17592936 179.96828326 -44.30859375 189.26953125 C-44.746875 188.71007812 -45.18515625 188.150625 -45.63671875 187.57421875 C-59.49712042 167.67586358 -59.49712042 167.67586358 -78.30859375 155.26953125 C-79.29859375 155.92953125 -80.28859375 156.58953125 -81.30859375 157.26953125 C-80.67885305 161.21906599 -80.67885305 161.21906599 -78.40234375 163.21875 C-61.80846641 180.73728617 -54.47667753 200.94210204 -53.6171875 224.9296875 C-53.30400248 228.31922155 -52.51119427 231.09640459 -51.30859375 234.26953125 C-47.36095105 235.58541215 -43.59770019 235.39253398 -39.484375 235.3671875 C-38.62297409 235.36577255 -37.76157318 235.3643576 -36.87406921 235.36289978 C-34.12304206 235.35730265 -31.37209631 235.34475071 -28.62109375 235.33203125 C-26.75586055 235.32701588 -24.89062608 235.32245304 -23.02539062 235.31835938 C-13.22342281 235.96902314 -13.22342281 235.96902314 -5.30859375 231.26953125 C-5.26895508 230.686875 -5.22931641 230.10421875 -5.18847656 229.50390625 C-3.50830546 205.88868374 0.45327047 185.41233903 16.69140625 167.26953125 C17.37074219 166.48320313 18.05007813 165.696875 18.75 164.88671875 C20.38284118 163.00090217 22.02904342 161.12929967 23.69140625 159.26953125 C23.19640625 158.27953125 23.19640625 158.27953125 22.69140625 157.26953125 C13.44384219 158.29703837 9.05729121 160.15888573 3.13427734 167.09228516 C0.37173459 170.57483905 -2.27003894 174.14128071 -4.90234375 177.72265625 C-8.87746716 183.02889897 -13.11018336 188.13814078 -17.30859375 193.26953125 C-16.97859375 180.06953125 -16.64859375 166.86953125 -16.30859375 153.26953125 C-21.73562841 148.13482346 -21.73562841 148.13482346 -26.890625 149.44140625 Z M24.69140625 150.26953125 C25.32160612 155.82423145 25.32160612 155.82423145 30.69140625 160.26953125 C31.02140625 158.94953125 31.35140625 157.62953125 31.69140625 156.26953125 C30.37140625 154.28953125 29.05140625 152.30953125 27.69140625 150.26953125 C26.70140625 150.26953125 25.71140625 150.26953125 24.69140625 150.26953125 Z M-52.30859375 154.26953125 C-52.30859375 155.58953125 -52.30859375 156.90953125 -52.30859375 158.26953125 C-50.98859375 157.93953125 -49.66859375 157.60953125 -48.30859375 157.26953125 C-48.30859375 156.27953125 -48.30859375 155.28953125 -48.30859375 154.26953125 C-49.62859375 154.26953125 -50.94859375 154.26953125 -52.30859375 154.26953125 Z M2.69140625 155.26953125 C2.36140625 156.58953125 2.03140625 157.90953125 1.69140625 159.26953125 C3.01140625 158.93953125 4.33140625 158.60953125 5.69140625 158.26953125 C6.02140625 157.27953125 6.35140625 156.28953125 6.69140625 155.26953125 C5.37140625 155.26953125 4.05140625 155.26953125 2.69140625 155.26953125 Z M-5.30859375 158.26953125 C-6.29859375 159.75453125 -6.29859375 159.75453125 -7.30859375 161.26953125 C-6.97859375 162.58953125 -6.64859375 163.90953125 -6.30859375 165.26953125 C-4.98859375 163.94953125 -3.66859375 162.62953125 -2.30859375 161.26953125 C-2.30859375 160.27953125 -2.30859375 159.28953125 -2.30859375 158.26953125 C-3.29859375 158.26953125 -4.28859375 158.26953125 -5.30859375 158.26953125 Z M-53.30859375 163.26953125 C-54.29859375 164.25953125 -55.28859375 165.24953125 -56.30859375 166.26953125 C-55.31859375 167.91953125 -54.32859375 169.56953125 -53.30859375 171.26953125 C-51.98859375 171.59953125 -50.66859375 171.92953125 -49.30859375 172.26953125 C-48.78684456 165.94035164 -48.78684456 165.94035164 -50.30859375 163.26953125 C-51.29859375 163.26953125 -52.28859375 163.26953125 -53.30859375 163.26953125 Z M-11.30859375 165.26953125 C-12.73118187 169.09273682 -13.54901651 172.1823443 -13.30859375 176.26953125 C-9.10851207 175.58394532 -9.10851207 175.58394532 -6.30859375 172.26953125 C-6.63859375 170.61953125 -6.96859375 168.96953125 -7.30859375 167.26953125 C-8.62859375 166.60953125 -9.94859375 165.94953125 -11.30859375 165.26953125 Z " fill="#000000" transform="translate(349.30859375,391.73046875)"/>
<path d="M0 0 C4.95 0 9.9 0 15 0 C15.33 15.51 15.66 31.02 16 47 C18.64 44.36 21.28 41.72 24 39 C26.79296875 37.16015625 26.79296875 37.16015625 29.1875 36.0625 C30.38439453 35.49208984 30.38439453 35.49208984 31.60546875 34.91015625 C41.23616918 31.24954744 52.27361652 31.93912127 61.6640625 35.86328125 C71.72282058 40.75809497 79.39368777 49.17483406 83.3125 59.625 C87.47733832 72.22320387 86.90264595 84.68714394 81.74609375 96.9921875 C75.86564096 108.56081669 67.42894956 115.4589074 55.11328125 119.640625 C44.80709441 121.39324827 35.51216699 120.22762978 26 116 C22.7 113.03 19.4 110.06 16 107 C15.67 110.63 15.34 114.26 15 118 C10.05 118 5.1 118 0 118 C0 79.06 0 40.12 0 0 Z M25 52 C17.67756902 60.13603442 14.81155887 66.28343378 14.9375 77.25 C14.94201172 77.99507812 14.94652344 78.74015625 14.95117188 79.5078125 C15.01553192 89.5479795 19.01720019 95.01720019 26 102 C35.64305257 107.01534617 35.64305257 107.01534617 50 106 C59.63485983 101.59082686 65.39446644 95.57587042 69.3125 85.6875 C71.08817863 76.1634055 69.83726506 68.85654481 66 60 C61.01511204 53.75752632 56.71524017 49.57174672 49 47 C46.60509014 46.93029948 44.20832309 46.91551997 41.8125 46.9375 C40.54019531 46.94652344 39.26789062 46.95554687 37.95703125 46.96484375 C33.57758104 46.80173267 33.57758104 46.80173267 25 52 Z " fill="#000000" transform="translate(704,433)"/>
<path d="M0 0 C4 5 4 5 4 12 C0 17 0 17 -2 18 C-9 18 -9 18 -14 15 C-15 13 -15 13 -15 5 C-10.10204082 -1.12244898 -10.10204082 -1.12244898 0 0 Z " fill="#000000" transform="translate(824,435)"/>
<path d="M0 0 C2.11209734 1.59103378 4.04879915 3.21139922 6 5 C4.55575365 8.23861303 2.74227753 10.61969163 0.375 13.25 C-0.57246094 14.30960937 -0.57246094 14.30960937 -1.5390625 15.390625 C-2.02117187 15.92171875 -2.50328125 16.4528125 -3 17 C-5.93356627 15.6187244 -8.48668613 14.00394678 -11.125 12.125 C-20.97910538 5.49616924 -32.05574742 2.35840978 -43.89453125 4.53125 C-55.56636006 7.2326544 -62.35547318 11.70975707 -71 20 C-71.96608323 21.85014053 -72.9224907 23.70533473 -73.875 25.5625 C-74.40867187 26.59503906 -74.94234375 27.62757813 -75.4921875 28.69140625 C-80.25148492 39.13473505 -80.75874014 51.51694347 -77.375 62.5 C-73.01895265 73.63381334 -66.18977001 81.7580047 -55.3125 86.875 C-44.00019324 91.8190183 -30.1198153 91.64153212 -18.66796875 87.21875 C-11.88655615 84.31420558 -11.88655615 84.31420558 -6 80 C-5.67 72.41 -5.34 64.82 -5 57 C-15.89 57 -26.78 57 -38 57 C-39 54 -39 54 -38 43 C-22.49 43 -6.98 43 9 43 C9 58.18 9 73.36 9 89 C-8.80798314 101.32860371 -26.22036552 108.88192829 -48.01074219 105.70703125 C-63.90384016 102.74647419 -77.39265984 94.87963108 -86.75 81.75 C-95.38697072 69.06961247 -98.81703596 53.72452398 -96.46484375 38.546875 C-94.13495516 26.78284737 -90.74929736 18.15980543 -83 9 C-82.39414062 8.18273437 -81.78828125 7.36546875 -81.1640625 6.5234375 C-61.30033401 -16.6389607 -23.56117484 -16.21414183 0 0 Z " fill="#000000" transform="translate(569,447)"/>
<path d="M0 0 C9.26399095 8.6035188 12.88466294 19.67605955 13.734375 32.06640625 C13.87641874 44.66095164 9.60072009 54.86472428 1.0859375 63.95703125 C-2.89694073 67.78543023 -6.67276385 70.61927851 -11.73046875 72.87109375 C-12.64828125 73.28746094 -13.56609375 73.70382812 -14.51171875 74.1328125 C-24.93729794 78.16223894 -37.79574412 77.2372064 -48.19140625 73.57421875 C-59.59807066 68.35471678 -67.6309379 59.79298653 -72.23046875 48.18359375 C-76.07535757 36.53969748 -75.13098165 23.56787382 -69.9765625 12.48828125 C-63.59222684 1.11129073 -54.68471012 -5.66397727 -42.54296875 -10.19140625 C-26.92379022 -13.31524196 -12.33407856 -10.04438972 0 0 Z M-47.23046875 8.18359375 C-57.13655348 18.47068174 -58.23046875 25.23836476 -58.23046875 40.18359375 C-54.64539714 50.00934557 -50.95231112 56.51570554 -41.23046875 61.18359375 C-33.59357253 63.96816602 -25.50013817 63.8984843 -18.04296875 60.55859375 C-10.33255706 56.22830193 -5.24030914 49.71220281 -2.6484375 41.29296875 C-0.83731535 32.15272611 -2.67990129 24.61619146 -6.23046875 16.18359375 C-12.87287106 7.57357417 -12.87287106 7.57357417 -23.23046875 3.18359375 C-37.00686195 2.14009536 -37.00686195 2.14009536 -47.23046875 8.18359375 Z " fill="#000000" transform="translate(670.23046875,476.81640625)"/>
<path d="M0 0 C4.95 0 9.9 0 15 0 C15 27.39 15 54.78 15 83 C10.05 83 5.1 83 0 83 C0 55.61 0 28.22 0 0 Z " fill="#000000" transform="translate(811,468)"/>
</svg>
