<?xml version="1.0" standalone="no"?>
<!DOCTYPE svg PUBLIC "-//W3C//DTD SVG 20010904//EN"
 "http://www.w3.org/TR/2001/REC-SVG-20010904/DTD/svg10.dtd">
<svg version="1.0" xmlns="http://www.w3.org/2000/svg"
 width="300.000000pt" height="300.000000pt" viewBox="0 0 300.000000 300.000000"
 preserveAspectRatio="xMidYMid meet">
<metadata>
Created by potrace 1.10, written by Peter Selinger 2001-2011
</metadata>
<g transform="translate(0.000000,300.000000) scale(0.100000,-0.100000)"
fill="#000000" stroke="none">
<path d="M1087 2835 l-69 -75 -277 0 -277 0 -122 -123 -122 -124 0 -224 0
-225 -60 -59 c-33 -33 -60 -64 -60 -69 0 -6 32 21 70 59 l70 69 0 221 0 220
118 118 117 117 270 0 271 0 59 60 c39 40 65 58 76 55 24 -8 45 21 29 40 -7 8
-15 15 -19 15 -3 -1 -37 -34 -74 -75z"/>
<path d="M1848 2895 c-3 -4 28 -40 70 -80 l77 -74 281 -1 280 0 102 -97 102
-96 0 -236 0 -237 75 -74 c41 -41 75 -70 75 -64 0 5 -29 39 -65 74 l-65 64 0
261 0 261 -39 38 c-21 21 -41 34 -44 29 -4 -6 12 -27 33 -48 22 -22 40 -43 40
-48 0 -5 -46 34 -102 87 -56 53 -107 96 -113 96 -7 0 -22 11 -35 25 -23 25
-26 25 -179 25 l-155 0 -48 47 c-26 26 -50 44 -54 40 -4 -3 15 -27 42 -51 l49
-45 156 -1 c135 0 158 -2 172 -17 15 -17 3 -18 -246 -15 l-262 3 -71 70 c-38
38 -73 67 -76 64z"/>
<path d="M875 2850 l-39 -40 -183 0 c-115 0 -183 -4 -183 -10 0 -6 69 -10 188
-10 l188 0 42 43 c23 23 42 46 42 50 0 16 -18 5 -55 -33z"/>
<path d="M262 2747 l-132 -132 0 -158 c0 -150 1 -157 20 -157 26 0 26 -26 0
-42 -14 -9 -20 -24 -20 -47 l0 -34 25 23 c25 23 25 24 25 209 l0 186 121 123
122 122 182 0 c169 0 183 1 200 20 18 20 17 20 -196 20 l-214 0 -133 -133z"/>
<path d="M2205 2860 c17 -19 31 -20 214 -20 l196 0 103 -103 102 -102 0 -199
c0 -197 0 -198 25 -228 l25 -30 0 235 0 234 -117 116 -118 117 -224 0 c-223 0
-224 0 -206 -20z"/>
<path d="M1430 2511 c-44 -14 -94 -42 -122 -68 -23 -22 -37 -26 -100 -27 -89
-2 -138 -25 -197 -92 -35 -39 -49 -48 -93 -56 -114 -21 -217 -107 -257 -214
-24 -62 -28 -173 -10 -235 11 -36 10 -40 -21 -76 -135 -153 -110 -405 52 -533
73 -58 147 -82 241 -79 l78 3 51 -49 c123 -119 187 -284 188 -483 0 -46 4 -58
29 -83 l29 -29 202 0 202 0 29 29 c25 25 29 37 29 83 1 195 65 361 186 483
l49 49 95 1 c84 0 101 3 150 28 168 86 250 264 206 448 -14 61 -51 133 -84
162 -18 16 -18 21 -6 55 17 49 17 128 0 186 -29 95 -96 162 -198 197 -42 14
-53 23 -68 56 -10 22 -34 56 -54 76 -59 56 -100 72 -194 73 -74 1 -86 4 -110
27 -52 48 -111 70 -197 73 -44 2 -91 0 -105 -5z m194 -88 c17 -8 50 -33 72
-55 l42 -40 56 13 c65 14 120 3 172 -37 39 -29 74 -98 74 -146 l0 -35 -68 5
c-56 4 -78 0 -117 -17 l-48 -21 -23 21 c-26 24 -57 22 -62 -5 -2 -11 6 -39 18
-63 29 -58 35 -109 18 -157 -12 -36 -17 -40 -68 -53 -115 -29 -214 -126 -241
-236 -17 -69 -7 -182 21 -236 22 -43 22 -45 4 -59 -107 -82 -273 -64 -354 37
-34 42 -57 50 -78 29 -18 -18 -15 -36 14 -73 l26 -34 -33 -20 c-103 -63 -238
-46 -336 42 -59 54 -87 117 -91 210 -4 68 -1 84 23 132 32 67 93 121 159 140
80 24 84 23 78 -34 -7 -73 21 -145 79 -203 55 -55 95 -70 116 -43 16 23 16 31
1 44 -7 6 -28 23 -46 37 -95 76 -96 238 -3 317 84 71 203 68 284 -7 33 -30 40
-32 61 -10 23 23 20 36 -16 71 -41 39 -85 61 -137 69 -24 4 -41 12 -41 20 0
46 62 124 124 156 29 15 60 22 106 22 70 0 113 -16 163 -62 22 -21 31 -24 45
-16 9 6 18 22 20 36 3 28 -38 66 -110 98 -48 22 -158 27 -204 10 -35 -14 -38
-9 -25 32 12 36 69 97 111 119 62 32 154 33 214 2z m-398 -95 c-4 -13 -10 -43
-13 -68 -4 -30 -15 -55 -33 -75 -34 -36 -66 -98 -75 -145 -6 -30 -16 -39 -69
-65 -43 -22 -71 -45 -96 -78 -33 -45 -37 -47 -83 -47 -26 0 -64 -7 -84 -15
-50 -21 -57 -10 -58 83 0 58 6 88 21 122 43 91 126 148 227 158 54 5 60 8 82
42 28 44 78 88 108 95 12 2 31 6 42 8 36 8 37 7 31 -15z m48 -84 c22 -8 20
-21 -4 -34 -18 -9 -20 -8 -20 15 0 27 1 28 24 19z m901 -122 c87 -47 134 -144
119 -242 -7 -45 -6 -44 -51 -28 -30 11 -33 16 -33 53 0 51 -28 111 -69 149
-23 22 -31 39 -31 63 0 18 3 33 8 33 4 0 30 -13 57 -28z m-172 -73 c82 -22
148 -116 133 -190 -7 -35 10 -53 60 -67 51 -15 128 -81 156 -136 33 -63 36
-184 8 -258 -26 -69 -86 -135 -153 -167 -54 -26 -150 -32 -201 -12 l-29 12 40
42 c73 75 88 117 88 237 0 118 -13 154 -83 232 -35 39 -139 98 -172 98 -12 0
-15 17 -15 90 l0 90 30 14 c64 29 81 31 138 15z m-123 -300 c89 -40 147 -119
157 -213 14 -141 -88 -272 -228 -291 -120 -17 -250 70 -284 189 -21 73 -15
130 22 198 32 58 81 102 138 122 59 21 142 19 195 -5z m-709 -504 c24 -14 52
-25 61 -25 25 0 33 -20 15 -38 -15 -14 -20 -12 -57 21 -22 21 -49 37 -60 37
-11 0 -20 7 -20 15 0 21 11 19 61 -10z m407 -10 c27 -16 32 -25 27 -45 -3 -14
-8 -90 -11 -170 -5 -141 -4 -144 13 -120 70 97 166 219 190 241 32 31 92 52
117 43 13 -5 5 -18 -43 -69 -108 -116 -169 -259 -177 -419 -9 -152 14 -136
-194 -136 -208 0 -185 -16 -194 135 -9 160 -67 301 -173 416 -59 63 -59 63
-13 88 11 6 37 -16 103 -88 48 -53 106 -121 129 -151 l41 -55 -7 100 c-3 55
-9 117 -12 138 -6 32 -4 37 12 37 26 0 116 43 133 64 8 9 17 15 20 14 3 -2 21
-12 39 -23z m395 -33 c16 -17 18 -25 9 -34 -6 -6 -13 -10 -14 -7 -2 2 -14 19
-27 38 -19 27 -21 35 -10 42 9 5 15 4 18 -4 2 -7 13 -22 24 -35z m-623 1 c0
-17 -19 -35 -29 -29 -18 12 -12 36 9 36 11 0 20 -3 20 -7z m425 -23 c-14 -16
-20 -17 -27 -8 -13 22 -9 28 19 28 26 0 26 0 8 -20z m-55 -7 c-1 -11 -40 -57
-44 -52 -2 2 -2 16 1 32 4 18 12 27 24 27 11 0 19 -3 19 -7z m-386 -49 c9 -24
7 -64 -3 -64 -5 0 -19 12 -31 27 -20 26 -20 28 -4 40 23 17 31 16 38 -3z m340
-22 c15 -18 15 -21 -5 -45 -25 -33 -39 -34 -39 -4 0 31 11 67 20 67 4 0 14 -8
24 -18z"/>
<path d="M153 1002 l67 -68 0 -260 0 -260 50 -49 c27 -27 53 -46 57 -42 4 4
-14 29 -40 55 -30 31 -47 56 -47 72 0 21 22 3 138 -113 l137 -137 156 0 155 0
44 -45 c24 -24 46 -42 49 -40 3 3 -17 28 -44 55 l-49 50 -157 0 c-136 0 -158
2 -172 18 -15 16 -3 17 246 14 l262 -3 78 -77 c42 -42 77 -71 77 -65 0 6 -35
46 -77 87 l-77 76 -271 0 -270 0 -113 113 -112 112 0 220 0 221 -68 67 c-37
37 -72 67 -77 67 -5 0 21 -30 58 -68z"/>
<path d="M2829 1003 l-69 -66 0 -223 0 -222 -110 -111 -110 -111 -272 0 -272
0 -63 -62 c-39 -39 -72 -63 -86 -63 -17 0 -22 -6 -22 -25 0 -30 32 -40 41 -13
4 10 34 46 68 81 l60 62 276 0 275 0 117 117 118 118 0 225 0 224 67 68 c87
88 72 89 -18 1z"/>
<path d="M130 594 l0 -209 133 -133 132 -132 214 0 214 0 -23 25 c-23 25 -24
25 -209 25 l-186 0 -113 113 -112 112 0 181 c0 180 0 181 -25 204 l-25 23 0
-209z"/>
<path d="M2843 769 c-22 -26 -23 -35 -23 -201 l0 -173 -113 -113 -112 -112
-186 0 c-185 0 -186 0 -209 -25 l-23 -25 218 0 218 0 129 128 128 127 -2 211
-3 210 -22 -27z"/>
<path d="M2128 174 c-45 -42 -58 -64 -40 -64 4 0 28 20 52 45 l44 45 178 0
c112 0 178 4 178 10 0 6 -67 10 -182 10 l-183 0 -47 -46z"/>
</g>
</svg>
